<?xml version="1.0" encoding="UTF-8"?><svg id="Layer_2" xmlns="http://www.w3.org/2000/svg" viewBox="0 0 658.05 175.18"><defs><style>.cls-1,.cls-2{fill:#fff;}.cls-3,.cls-4,.cls-5{fill:#411924;}.cls-4{stroke-linecap:round;stroke-linejoin:round;stroke-width:1.92px;}.cls-4,.cls-2{stroke:#411924;}.cls-5{stroke:#fff;}.cls-5,.cls-2{stroke-miterlimit:10;stroke-width:3.83px;}</style></defs><g id="Layer_1-2"><path class="cls-3" d="M138.44,0H58.23c-6.47,0-12.46,3.45-15.7,9.06L2.43,78.53c-3.24,5.61-3.24,12.52,0,18.12l40.11,69.47c3.24,5.61,9.22,9.06,15.7,9.06h80.21c6.47,0,12.46-3.45,15.7-9.06l40.11-69.47c3.24-5.61,3.24-12.52,0-18.12L154.14,9.06c-3.24-5.61-9.22-9.06-15.7-9.06Z"/><path class="cls-2" d="M101.91,159.97c7.05-2.22,23.53-8.68,39.78-24.32,10.05-9.67,17.82-21.5,22.6-34.6,1.4-3.83,2.52-7.71,2.87-10.93,1.51-14.09-3.43-28.67-14.14-38.15-8.68-7.68-20.47-10.96-31.64-12.94-19.12-3.39-37.53-2.3-56.22,2.7-10.57,2.82-20.89,7.55-27.61,16.52s-9.22,20.72-8.03,31.88c.35,3.23,1.47,7.11,2.87,10.93,4.78,13.1,12.55,24.93,22.6,34.6,16.26,15.64,32.73,22.11,39.78,24.32,2.32,.73,4.8,.73,7.11,0Z"/><ellipse class="cls-5" cx="55.24" cy="112.22" rx="18.48" ry="32.08" transform="translate(-63.17 71.93) rotate(-45)"/><ellipse class="cls-5" cx="141.27" cy="111.2" rx="32.08" ry="18.48" transform="translate(-37.25 132.46) rotate(-45)"/><path class="cls-4" d="M98.03,129.69l-3.5,1.11c-2.82,.89-5.45-1.83-4.45-4.61l7.95-22.3,8.54,22.33c1.06,2.77-1.51,5.55-4.36,4.71l-4.19-1.24Z"/><rect class="cls-3" x="86.83" y="140.71" width="23.02" height="8.1" rx="3.5" ry="3.5"/><g><path class="cls-1" d="M241.86,117.48h-18.25v-52.7h17.72c11.08,0,16.36,5.88,16.36,13.27,0,6.94-4.37,10.78-9.42,12.21,5.88,1.06,10.63,6.48,10.63,13.12,0,7.92-5.96,14.1-17.04,14.1Zm-.91-48.25h-12.06v18.85h12.29c7.16,0,11.16-3.62,11.16-9.5s-3.77-9.35-11.38-9.35Zm.3,23.22h-12.36v20.58h12.59c7.61,0,12.14-3.85,12.14-10.18s-4.83-10.4-12.36-10.4Z"/><path class="cls-1" d="M304.29,117.48h-5.28v-7.24c-2.49,5.2-7.92,7.92-14.02,7.92-9.35,0-16.74-5.73-16.74-17.79v-24.05h5.2v23.45c0,9.12,4.98,13.8,12.52,13.8s13.04-4.83,13.04-14.85v-22.39h5.28v41.17Z"/><path class="cls-1" d="M337.92,75.71c11.31,0,19.6,8.22,19.6,21.11s-8.37,21.26-19.6,21.26c-8.22,0-13.87-4.3-16.36-9.65v9.05h-5.2V61.69h5.2v23.75c2.56-5.43,8.29-9.73,16.36-9.73Zm-1.06,4.6c-8.37,0-15.3,6.33-15.3,16.59s6.94,16.59,15.3,16.59,15.3-6.26,15.3-16.66-6.63-16.51-15.3-16.51Z"/><path class="cls-1" d="M388.81,75.71c11.31,0,19.6,8.22,19.6,21.11s-8.37,21.26-19.6,21.26c-8.22,0-13.87-4.3-16.36-9.65v9.05h-5.2V61.69h5.2v23.75c2.56-5.43,8.29-9.73,16.36-9.73Zm-1.06,4.6c-8.37,0-15.3,6.33-15.3,16.59s6.94,16.59,15.3,16.59,15.31-6.26,15.31-16.66-6.63-16.51-15.31-16.51Z"/><path class="cls-1" d="M418.14,61.69h5.28v55.79h-5.28V61.69Z"/><path class="cls-1" d="M453.2,118.08c-11.69,0-20.21-8.14-20.21-21.19s8.37-21.19,20.21-21.19,19.45,8.59,19.45,19.07c0,1.66,0,2.71-.15,4.15h-34.15c.45,9.65,7.16,14.7,14.85,14.7,7.01,0,11.76-3.69,13.27-9.2h5.58c-1.88,7.77-8.52,13.65-18.85,13.65Zm-14.85-23.45h28.95c.23-9.58-6.71-14.4-14.32-14.4s-14.02,4.83-14.63,14.4Z"/><path class="cls-1" d="M505.82,75.03c10.71,0,19.07,8.37,19.07,21.41s-8.37,21.71-19.07,21.71c-6.56,0-11.23-3.02-13.8-6.63v5.96h-10.55V61.69h10.55v20.13c2.56-3.85,7.46-6.79,13.8-6.79Zm-2.79,9.27c-5.65,0-11.01,4.37-11.01,12.29s5.35,12.29,11.01,12.29,11.08-4.52,11.08-12.44-5.35-12.14-11.08-12.14Z"/><path class="cls-1" d="M550.84,118.16c-12.14,0-20.96-8.44-20.96-21.56s8.59-21.56,20.96-21.56,20.58,8.22,20.58,20.66c0,1.36-.08,2.71-.3,4.07h-30.53c.53,6.18,4.75,9.65,10.03,9.65,4.52,0,7.01-2.26,8.37-5.05h11.38c-2.26,7.69-9.2,13.8-19.53,13.8Zm-10.18-25.48h19.83c-.15-5.5-4.52-8.97-9.95-8.97-5.05,0-9.05,3.24-9.88,8.97Z"/><path class="cls-1" d="M597.36,118.16c-12.14,0-20.96-8.44-20.96-21.56s8.59-21.56,20.96-21.56,20.58,8.22,20.58,20.66c0,1.36-.08,2.71-.3,4.07h-30.53c.53,6.18,4.75,9.65,10.03,9.65,4.52,0,7.01-2.26,8.37-5.05h11.38c-2.26,7.69-9.2,13.8-19.53,13.8Zm-10.18-25.48h19.83c-.15-5.5-4.52-8.97-9.95-8.97-5.05,0-9.05,3.24-9.88,8.97Z"/><path class="cls-1" d="M641.62,118.16c-10.48,0-17.79-6.11-18.25-13.87h10.63c.38,3.17,3.32,5.58,7.54,5.58s6.41-1.88,6.41-4.3c0-7.46-23.6-2.71-23.6-18.02,0-6.94,6.18-12.52,16.51-12.52s16.21,5.5,16.81,13.8h-10.1c-.3-3.24-2.87-5.43-7.01-5.43-3.92,0-5.96,1.58-5.96,4,0,7.61,23.15,2.86,23.45,18.17,0,7.16-6.26,12.59-16.44,12.59Z"/></g></g></svg>